<?xml version="1.0" standalone="no"?><!DOCTYPE svg PUBLIC "-//W3C//DTD SVG 1.1//EN" "http://www.w3.org/Graphics/SVG/1.1/DTD/svg11.dtd"><svg t="1558596268173" class="icon" style="" viewBox="0 0 1024 1024" version="1.1" xmlns="http://www.w3.org/2000/svg" p-id="2351" xmlns:xlink="http://www.w3.org/1999/xlink" width="128" height="128"><defs><style type="text/css"></style></defs><path d="M765.395478 667.158261l51.734261 51.712L1024 512l-206.870261-206.870261-51.734261 51.712 118.583652 118.583652H365.746087v73.149218H883.97913z" p-id="2352" fill="#515151"></path><path d="M821.693217 822.316522a435.934609 435.934609 0 0 1-310.316521 128.534261 436.023652 436.023652 0 0 1-310.316522-128.534261C118.160696 739.439304 73.149217 629.225739 73.149217 512c0-117.203478 45.011478-227.417043 127.910957-310.316522a436.023652 436.023652 0 0 1 310.316522-128.534261c117.225739 0 227.417043 45.634783 310.316521 128.534261 5.787826 5.787826 11.353043 11.709217 16.762435 17.741913h93.094957C839.034435 86.817391 685.345391 0 511.398957 0 228.61913 0 0 229.242435 0 512c0 282.779826 228.61913 512 511.398957 512 173.968696 0 327.657739-86.79513 420.151652-219.425391h-93.094957a445.217391 445.217391 0 0 1-16.762435 17.741913z" p-id="2353" fill="#515151"></path></svg>